# xmcd
#
# Track frame offsets: 
#        150
#        17180
#        34051
#        52253
#        67781
#        87183
#        102129
#        115326
#        134034
#        152070
#        167813
#        185762
#        202001
#        219182
#        236041
#        253006
#        267744
#        286795
#        303243
#        316793
#
# Disc length: 4400 seconds
#
# Revision: 0
# Processed by: cddbd v1.5.2PL0 Copyright (c) Steve Scherf et al.
# Submitted via: ExactAudioCopy v1.1
#
DISCID=25112e14
DTITLE=Various Artist - MNM Party 2019 Volume 2 - CD 2 - Hottest Party Flashb
DTITLE=acks
DYEAR=2019
DGENRE=Pop
TTITLE0=Calvin Harris Feat. Ellie Goulding - Outside
TTITLE1=The Black Eyed Peas - My Humps
TTITLE2=Justin Timberlake - Sexyback
TTITLE3=Bob Sinclar Presents Goleo VI Feat. Gary 'Nesta' Pine - Love G
TTITLE3=eneration
TTITLE4=Ice MC - Think About The Way
TTITLE5=Milk Inc. - Land Of The Living
TTITLE6=Tiësto - Traffic
TTITLE7=Gusttavo Lima - Balada (Regi Remix Radio)
TTITLE8=Benny Benassi - Satisfaction
TTITLE9=Discobitch - C'Est Beau La Bourgeoisie
TTITLE10=Pitbull - Hotel Room Service
TTITLE11=Madcon - Beggin
TTITLE12=Usher - More
TTITLE13=Flo Rida - Whistle
TTITLE14=Jennifer Lopez - Get Right
TTITLE15=Watermät - Bullit
TTITLE16=Kiesza - Hideaway
TTITLE17=Far East Movement and The Cataracs Feat. Dev - Like A G6
TTITLE18=Alex Gaudino Feat. Crystal Waters - Destination Calabria
TTITLE19=Kendrick Lamar - Humble.
EXTD=
EXTT0=
EXTT1=
EXTT2=
EXTT3=
EXTT4=
EXTT5=
EXTT6=
EXTT7=
EXTT8=
EXTT9=
EXTT10=
EXTT11=
EXTT12=
EXTT13=
EXTT14=
EXTT15=
EXTT16=
EXTT17=
EXTT18=
EXTT19=
PLAYORDER=
